<?xml version="1.0" encoding="UTF-8" standalone="no"?>
<svg
   xmlns:dc="http://purl.org/dc/elements/1.1/"
   xmlns:cc="http://creativecommons.org/ns#"
   xmlns:rdf="http://www.w3.org/1999/02/22-rdf-syntax-ns#"
   xmlns:svg="http://www.w3.org/2000/svg"
   xmlns="http://www.w3.org/2000/svg"
   xmlns:sodipodi="http://sodipodi.sourceforge.net/DTD/sodipodi-0.dtd"
   xmlns:inkscape="http://www.inkscape.org/namespaces/inkscape"
   id="Logo"
   viewBox="0 0 962 962"
   version="1.1"
   sodipodi:docname="favicon.svg"
   inkscape:version="1.0.2 (e86c870879, 2021-01-15, custom)">
  <metadata
     id="metadata70">
    <rdf:RDF>
      <cc:Work
         rdf:about="">
        <dc:format>image/svg+xml</dc:format>
        <dc:type
           rdf:resource="http://purl.org/dc/dcmitype/StillImage" />
        <dc:title>favicon</dc:title>
      </cc:Work>
    </rdf:RDF>
  </metadata>
  <sodipodi:namedview
     pagecolor="#ffffff"
     bordercolor="#666666"
     borderopacity="1"
     objecttolerance="10"
     gridtolerance="10"
     guidetolerance="10"
     inkscape:pageopacity="0"
     inkscape:pageshadow="2"
     inkscape:window-width="1366"
     inkscape:window-height="715"
     id="namedview68"
     showgrid="false"
     inkscape:zoom="0.40280095"
     inkscape:cx="762.31729"
     inkscape:cy="511.85906"
     inkscape:window-x="-8"
     inkscape:window-y="-8"
     inkscape:window-maximized="1"
     inkscape:current-layer="Logo"
     inkscape:document-rotation="0" />
  <defs
     id="defs47">
    <rect
       x="657.89318"
       y="506.45362"
       width="359.97929"
       height="64.54801"
       id="rect92" />
    <rect
       x="494.04054"
       y="767.12828"
       width="192.38911"
       height="251.97189"
       id="rect80" />
    <rect
       x="79.443705"
       y="143.99172"
       width="176.26573"
       height="258.19204"
       id="rect74" />
    <style
       id="style45">.cls-1{fill:none;}.cls-2{fill:#1da1eb;}</style>
  </defs>
  <title
     id="title49">favicon</title>
  <polygon
     class="cls-1"
     points="962 962 962 785.02 173.47 785.02 173.47 0 0 0 0 962 962 962"
     id="polygon53" />
  <rect
     class="cls-2"
     x="-5.6843419e-14"
     width="962"
     height="962"
     id="rect59"
     y="0"
     style="stroke-width:2.76224;fill:#0b280b" />
  <text
     xml:space="preserve"
     id="text90"
     style="fill:black;fill-opacity:1;line-height:1.25;stroke:none;font-family:sans-serif;font-style:normal;font-weight:normal;font-size:40px;white-space:pre;shape-inside:url(#rect92);" />
  <path
     style="fill:#f9f9f9"
     id="path29"
     d="m 311.41057,653.3338 c -2.10527,-2.37842 -5.02612,-4.23254 -6.3158,-7.13526 -14.76822,-33.23926 -6.14929,-74.3746 0.53356,-107.94462 4.17754,-20.98505 26.313,-108.81424 30.75727,-126.67923 17.96554,-68.89064 43.31193,-135.66106 73.27267,-200.1834 9.10899,-19.61678 29.47499,-62.05012 45.25019,-80.58519 5.53803,-6.50691 13.45744,-10.5326 20.18616,-15.7989 -64.21099,37.69102 -130.95841,71.36082 -192.63298,113.07308 -4.30148,2.90922 9.75104,4.39841 13.19054,8.28892 8.16073,9.23083 14.96845,19.67197 21.01811,30.40544 19.8001,35.12988 29.55027,62.84862 39.80711,102.23917 4.9131,18.86833 7.94714,38.1766 11.9207,57.26491 2.0843,17.48147 4.60438,34.91649 6.25291,52.44443 3.05654,32.49872 2.87527,48.09818 3.75899,79.45161 0.25773,9.14407 0.61215,18.28536 0.84458,27.43011 0.17534,6.89866 -0.10729,13.81544 0.3787,20.69919 0.36315,5.14392 1.44272,10.21205 2.16408,15.31807 69.90982,67.52893 19.81578,27.01214 219.5538,-114.50328 7.63918,-5.4124 5.6271,-17.88992 9.29114,-26.50536 5.20597,-12.24101 11.08851,-24.19755 17.27941,-35.97113 21.1556,-40.23281 28.13657,-48.89696 53.53549,-87.97049 29.2373,-42.68981 61.40406,-83.3978 96.34839,-121.56436 8.63456,-9.43075 16.97331,-19.23934 26.68553,-27.55604 7.2638,-6.22009 15.96407,-10.53366 23.9461,-15.80049 -60.7253,36.22136 -121.45061,72.44272 -182.17591,108.66408 0.8387,-0.0723 1.99194,-0.8755 2.51611,-0.2168 12.16292,15.28448 14.82377,26.2422 19.81217,46.23895 6.8856,27.602 11.41993,59.09745 14.0845,87.18131 1.68471,17.75652 2.33434,35.59606 3.50151,53.3941 2.48696,67.45314 -1.23234,134.96078 -8.90606,201.97583 -10.02555,87.55375 0.19054,-12.29901 -7.23118,62.26229 -1.61129,35.37413 -1.151,10.60153 -0.21404,43.52815 0.31086,10.92416 0.34195,21.8547 0.59586,32.78033 0,0 198.99564,-105.44301 198.99564,-105.44301 v 0 c -3.58102,-10.85477 -5.55234,-16.09033 -8.22471,-27.6216 -2.91759,-12.58936 -4.40431,-25.49048 -8.12493,-37.90809 -7.40662,-29.03621 -15.58267,-57.79093 -20.10434,-87.48598 -7.7222,-50.71378 -9.3217,-102.09491 -7.17466,-153.2988 1.00993,-18.96926 1.71216,-37.95742 3.0298,-56.90779 2.85012,-40.99064 5.56174,-60.73457 9.62591,-100.71891 0.44836,-4.4111 6.70092,-62.76876 5.28256,-70.71867 -1.56894,-8.79391 -7.70139,-16.12038 -11.55208,-24.18056 -67.63236,36.72202 -136.44253,71.35321 -202.89706,110.16606 -3.57882,2.09022 -3.20811,7.65349 -5.12373,11.32872 -3.83914,7.36561 -7.93008,14.60048 -12.12718,21.76816 -22.54152,38.49572 -47.58074,75.4459 -72.77852,112.23016 -21.50445,30.56637 -45.16003,64.73664 -67.68675,94.56252 -10.84822,14.36328 -21.62884,28.80963 -33.3536,42.46678 -9.97665,11.62093 -45.82893,39.14133 -31.67779,33.28261 173.72965,-71.9258 197.78002,-158.87137 173.32715,-80.97781 -3.06996,-1.96598 -6.75354,-3.2042 -9.20986,-5.89792 -5.83928,-6.40363 -18.28784,-30.43733 -21.29328,-36.22073 -18.67349,-35.93362 -35.56462,-72.80372 -47.25853,-111.68916 -4.7287,-18.64949 -10.49099,-37.06698 -14.1861,-55.94845 -9.03086,-46.14637 -10.38875,-72.16859 -9.89309,-118.7382 0.16168,-15.19108 2.27736,-30.3225 2.37012,-45.51416 0.0689,-11.28605 8.80445,-37.425518 -1.88576,-33.80624 -73.43018,24.86059 -138.43324,69.8312 -207.64985,104.74681 1.37643,3.25629 3.56281,6.2793 4.12929,9.76887 3.01415,18.56714 0.10864,43.97707 -2.29782,61.21141 -9.05711,64.86412 -26.2703,128.26673 -50.26792,189.19442 -11.78346,29.86319 -42.10992,107.18942 -55.12612,138.4408 -26.88587,64.55188 -21.97023,50.39252 -49.40647,110.21165 -15.00951,32.72519 -12.45348,27.03598 -22.736012,53.07413 0,0 216.266082,-113.60244 216.266082,-113.60244 z" />
</svg>
